HIERARCHY
ROOT Hips
{
  OFFSET 279.157 85.6768 304.565
  CHANNELS 6 Xposition Yposition Zposition Zrotation Xrotation Yrotation
  JOINT LeftUpLeg
  {
    OFFSET 8.64259 1.95398 -2.38835
    CHANNELS 3 Zrotation Xrotation Yrotation
    JOINT LeftLeg
    {
      OFFSET 43.7702 0 0
      CHANNELS 3 Zrotation Xrotation Yrotation
      JOINT LeftFoot
      {
        OFFSET 40.6238 0 0
        CHANNELS 3 Zrotation Xrotation Yrotation
        JOINT LeftToeBase
        {
          OFFSET 12.7242 0 0
          CHANNELS 3 Zrotation Xrotation Yrotation
          End Site
          {
            OFFSET 0 0 0
          }
        }
      }
    }
  }
  JOINT RightUpLeg
  {
    OFFSET -8.2249 1.95398 -2.59336
    CHANNELS 3 Zrotation Xrotation Yrotation
    JOINT RightLeg
    {
      OFFSET 43.5653 0 0
      CHANNELS 3 Zrotation Xrotation Yrotation
      JOINT RightFoot
      {
        OFFSET 40.6238 0 0
        CHANNELS 3 Zrotation Xrotation Yrotation
        JOINT RightToeBase
        {
          OFFSET 12.7242 0 0
          CHANNELS 3 Zrotation Xrotation Yrotation
          End Site
          {
            OFFSET 0 0 0
          }
        }
      }
    }
  }
  JOINT Spine
  {
    OFFSET 0.165834 0.87714 6.61349
    CHANNELS 3 Zrotation Xrotation Yrotation
    JOINT Spine1
    {
      OFFSET 7.38963 1.71661e-005 0
      CHANNELS 3 Zrotation Xrotation Yrotation
      JOINT Spine2
      {
        OFFSET 11.9445 1.14441e-005 0
        CHANNELS 3 Zrotation Xrotation Yrotation
        JOINT Spine3
        {
          OFFSET 14.7254 4.19617e-005 0
          CHANNELS 3 Zrotation Xrotation Yrotation
          JOINT Spine4
          {
            OFFSET 10.9679 0 0
            CHANNELS 3 Zrotation Xrotation Yrotation
            JOINT RightShoulder
            {
              OFFSET 2.46616 -1.6653 3.69651
              CHANNELS 3 Zrotation Xrotation Yrotation
              JOINT RightArm
              {
                OFFSET 13.0012 0 0
                CHANNELS 3 Zrotation Xrotation Yrotation
                JOINT RightForeArm
                {
                  OFFSET 28.7848 1.52588e-005 0
                  CHANNELS 3 Zrotation Xrotation Yrotation
                  JOINT RightHand
                  {
                    OFFSET 26.5688 1.52588e-005 0
                    CHANNELS 3 Zrotation Xrotation Yrotation
                    End Site
                    {
                      OFFSET 0 0 0
                    }
                  }
                }
              }
            }
            JOINT LeftShoulder
            {
              OFFSET 2.38034 -1.29275 -3.7523
              CHANNELS 3 Zrotation Xrotation Yrotation
              JOINT LeftArm
              {
                OFFSET 16.3182 6.10351e-005 0
                CHANNELS 3 Zrotation Xrotation Yrotation
                JOINT LeftForeArm
                {
                  OFFSET 27.0901 0 0
                  CHANNELS 3 Zrotation Xrotation Yrotation
                  JOINT LeftHand
                  {
                    OFFSET 24.5451 1.52588e-005 0
                    CHANNELS 3 Zrotation Xrotation Yrotation
                    End Site
                    {
                      OFFSET 0 0 0
                    }
                  }
                }
              }
            }
            JOINT Neck
            {
              OFFSET 5.0226 -0.0266342 0
              CHANNELS 3 Zrotation Xrotation Yrotation
              JOINT Head
              {
                OFFSET 6.69364 2.86102e-005 0
                CHANNELS 3 Zrotation Xrotation Yrotation
                End Site
                {
                  OFFSET 0 0 0
                }
              }
            }
          }
        }
      }
    }
  }
}
MOTION
Frames:	15
Frame Time:	0.0416667
-256.804 100.389 -241.584 -100.481 -57.0991 -98.7626 -174.6 -3.45724 90.2957 -15.3779 7.21328 1.40175 69.0091 5.38625 -0.988593 28.9354 0.919164 -3.7918 173.729 -3.32999 89.0724 -13.5139 -11.3466 -0.582304 66.9662 -4.53504 -0.120264 23.8528 0.613866 6.19216 0.380579 7.86009 -90.4395 11.1552 0.553358 -0.928732 -0.515984 0.51196 -0.952194 -23.0503 0.8069 -0.719496 -3.03768 0.806899 -0.719504 88.4752 -31.2607 -109.24 40.6787 -6.92446 -3.31802 2.56031 -16.7556 -15.0895 -22.0404 1.18483 -16.8971 -89.8718 -54.3922 79.8149 -22.8616 8.87112 -6.96317 3.45034 10.9277 -13.8886 2.78915 -0.369275 -10.548 0.0134478 11.2633 -0.251729 -6.26442 11.0657 3.4908 
-256.968 100.245 -241.562 -99.2285 -57.137 -97.5904 -174.147 -2.03087 90.7199 -16.9526 7.44066 0.914491 69.8303 5.95024 -1.07635 29.5661 1.21365 -3.72862 173.91 -2.39188 89.3164 -14.1478 -11.2571 -0.544044 67.0984 -4.69784 -0.280402 24.524 0.416559 6.22177 0.384528 7.81463 -90.5095 11.2461 0.528272 -1.06651 -0.425252 0.480817 -1.08873 -22.9588 0.824349 -0.858465 -2.94615 0.82437 -0.858459 88.5366 -31.0024 -109.228 40.3462 -6.94293 -3.71282 2.55985 -16.8241 -14.9535 -23.3479 1.08355 -15.6234 -90.3503 -55.4694 79.3493 -21.9034 8.90874 -7.38301 4.10513 12.3344 -15.4139 4.45673 -0.323332 -8.23337 0.224392 11.3574 0.495003 -6.0635 11.061 3.36129 
-256.951 100.063 -241.166 -98.8191 -57.1146 -97.4013 -174.34 -1.5313 90.311 -18.0562 7.09906 0.883034 70.2225 6.55899 -0.720524 30.882 1.73222 -3.11659 173.834 -1.46552 89.0628 -15.8708 -11.2225 -0.657281 67.7862 -4.92339 0.000283812 25.272 0.232604 6.03703 0.362413 7.82711 -90.5124 11.2207 0.483012 -1.06743 -0.45058 0.435555 -1.08765 -22.9839 0.78147 -0.872936 -2.97124 0.781474 -0.872932 88.7008 -30.8323 -108.981 40.3207 -7.24004 -4.05198 2.46549 -16.6064 -15.4377 -24.058 0.932907 -14.3863 -90.2325 -55.2466 79.4711 -22.0247 8.54825 -7.56052 4.89406 13.5163 -16.4805 4.16848 -0.348886 -8.89288 0.808571 11.3467 0.431928 -6.55472 11.0364 3.41278 
-256.6 99.6921 -240.785 -98.1575 -57.944 -97.1561 -174.321 0.320246 89.9725 -20.9631 7.16019 0.475565 71.3516 7.93945 -0.753903 31.949 2.27043 -3.19756 173.145 0.217834 88.1218 -18.8221 -11.5784 -0.326024 69.2597 -5.46186 -0.291399 25.3108 0.286074 5.62982 0.351494 7.88241 -90.5979 11.1097 0.422156 -1.23081 -0.561753 0.367576 -1.24821 -23.0938 0.772539 -1.04707 -3.08119 0.77253 -1.04707 89.9766 -29.6019 -106.955 41.1294 -7.18857 -4.68623 1.69258 -17.7449 -16.0327 -23.7196 0.547394 -12.7673 -91.1178 -55.5452 78.2863 -21.896 8.82152 -8.80774 5.12348 14.3035 -16.8751 3.69745 -0.32342 -8.73288 1.97899 10.9772 1.07468 -6.66154 10.5482 3.36091 
-255.887 99.1483 -240.625 -98.0538 -58.3735 -96.2658 -173.328 3.72749 90.5758 -26.7974 8.9344 -0.201501 72.0301 9.14598 1.40637 32.8773 2.68272 -2.9627 172.976 1.88104 88.4298 -21.6809 -10.9726 0.0949768 70.1157 -5.68444 -0.0131962 26.596 -0.116007 5.82647 0.331753 7.94973 -90.8164 10.9736 0.282437 -1.65111 -0.698336 0.209535 -1.66195 -23.2266 0.765561 -1.48995 -3.21393 0.765581 -1.48996 90.1032 -28.8756 -106.989 40.7387 -6.2954 -4.15305 1.05187 -19.6142 -16.9809 -23.8503 0.324234 -12.1199 -91.4649 -56.0731 77.9115 -21.8521 9.86608 -8.92841 4.67164 12.538 -17.8038 6.92038 -0.387199 -8.01894 2.69106 10.7677 1.7051 -6.36147 10.2239 3.54933 
-254.876 98.6835 -240.42 -96.3155 -58.0049 -94.4076 -171.776 8.84663 90.7878 -33.8643 5.75142 -1.57279 71.8758 8.3123 0.370081 31.9622 2.38992 -3.81811 172.57 4.66149 87.9717 -24.5437 -12.6153 0.377757 70.1717 -5.81213 -0.0688257 28.1699 -0.495732 5.27895 0.337303 7.98297 -90.924 10.9066 0.244343 -1.86108 -0.765706 0.162207 -1.87003 -23.2918 0.79231 -1.70169 -3.27911 0.79229 -1.7017 90.5298 -28.448 -106.292 40.4359 -6.66853 -4.39601 0.657128 -17.5331 -18.0444 -23.9136 0.943989 -14.8414 -91.2786 -55.9389 78.1433 -21.6502 8.94263 -8.77016 7.00062 17.6173 -19.9744 5.14432 -0.392309 -8.93922 4.44596 10.9077 1.14434 -6.95324 10.3708 4.15769 
-253.681 98.0686 -240.118 -94.6748 -57.5802 -92.9561 -169.356 14.0369 91.0421 -40.6681 1.90312 -3.52659 71.7081 7.91883 0.826637 32.1439 2.15924 -2.02057 171.321 7.81688 86.813 -27.9581 -14.6087 1.06548 70.994 -6.47597 -0.113398 28.966 -0.72031 5.17322 0.288569 8.06138 -91.069 10.7469 0.0817745 -2.13312 -0.925833 -0.0121774 -2.13466 -23.4482 0.718962 -2.01002 -3.43552 0.718955 -2.01003 90.8267 -27.9942 -105.858 39.2371 -6.08395 -4.64239 0.306817 -18.5015 -19.939 -24.716 0.654929 -13.2563 -91.9475 -55.8974 77.1997 -21.9974 8.48697 -8.00405 8.46743 19.7066 -21.9029 6.3545 -0.364151 -8.00771 6.92964 11.2008 1.42277 -8.40567 10.5104 4.03859 
-252.311 97.1741 -239.72 -94.3357 -57.132 -93.0534 -166.762 18.6749 91.514 -47.526 -0.419639 -4.90572 71.6616 7.59074 0.64556 31.3203 1.3197 0.105283 170.538 10.8597 85.3988 -32.6024 -16.4339 1.0084 72.203 -7.37728 -0.527819 30.5929 -1.13577 4.67494 0.0847801 8.26283 -91.1109 10.3397 -0.33942 -2.17733 -1.333 -0.434915 -2.16029 -23.8536 0.330481 -2.17871 -3.84098 0.330471 -2.17871 91.1017 -27.927 -105.321 38.1258 -4.87403 -5.38487 -0.864667 -20.3165 -21.9987 -25.6965 0.404621 -12.2513 -91.5784 -54.3021 77.3671 -22.9325 9.68286 -7.39466 9.21328 20.9501 -23.8321 8.00247 -0.33559 -7.05306 9.38646 12.0378 1.48144 -9.229 11.1934 4.68308 
-250.858 96.1664 -239.241 -93.0499 -56.7134 -92.5713 -164.539 23.9878 92.9861 -53.7181 -3.1302 -5.36939 72.1822 6.96733 -1.5229 30.4211 0.336878 2.5338 169.674 14.5591 83.8157 -37.1536 -17.895 0.901547 73.1488 -8.08589 -0.218705 31.9028 -1.4929 4.34553 -0.132834 8.38041 -91.167 10.0996 -0.796438 -2.25019 -1.57295 -0.894683 -2.213 -24.0926 -0.0835537 -2.38545 -4.07991 -0.0835681 -2.38546 91.0452 -27.8722 -105.457 36.8475 -3.01698 -5.07216 -2.57878 -21.4421 -24.9137 -25.9683 0.447735 -12.7708 -91.9739 -54.4343 76.835 -20.6416 11.1155 -7.44963 8.66627 21.9319 -23.732 9.53259 -0.232929 -5.73558 10.1833 13.2036 1.84547 -8.93895 12.1272 6.61261 
-249.386 94.6878 -238.474 -92.6055 -55.4651 -93.3087 -163.079 27.8232 95.8367 -57.6888 -5.24565 -4.9928 73.7306 7.70286 -2.40815 29.9651 0.673844 -0.290749 169.084 18.6409 81.7015 -43.3101 -20.4049 0.207247 75.0347 -9.67314 -1.13853 31.4032 -1.48355 5.73583 -0.26852 8.53548 -91.1502 9.7876 -1.05616 -2.19735 -1.88469 -1.15182 -2.14877 -24.4056 -0.347156 -2.41305 -4.39293 -0.347162 -2.41305 91.1401 -27.8363 -105.274 36.1946 -1.53477 -4.61122 -3.7912 -18.5971 -27.4575 -26.6096 1.0179 -14.5736 -92.1677 -52.7202 76.1606 -21.794 9.44564 -7.25625 9.41151 25.4732 -22.6633 13.8142 0.00905498 -3.63008 10.3812 14.2116 2.6649 -8.56223 12.8624 8.07269 
-247.662 93.0025 -237.118 -91.6971 -52.9009 -94.2198 -162.271 30.2763 99.495 -58.0238 -4.37659 -4.68666 71.8248 7.59903 1.27897 32.0965 2.54125 -4.24615 169.147 23.3071 78.6297 -49.7337 -23.9206 -1.23313 76.6415 -11.057 -1.38454 32.4625 -1.76123 5.46159 -0.217034 8.61623 -91.1552 9.62701 -0.954227 -2.21679 -2.04539 -1.05086 -2.17267 -24.5658 -0.244108 -2.40098 -4.55311 -0.244098 -2.40098 92.3091 -27.0047 -103.144 35.6756 -0.44553 -3.56729 -5.2235 -18.9345 -30.8626 -29.7694 0.924225 -13.2099 -92.9729 -53.7054 75.2427 -20.3514 8.28789 -6.88066 9.14314 25.8808 -21.5087 15.6212 0.08801 -3.27135 10.5988 15.3119 4.7001 -9.11382 13.3815 8.96074 
-245.923 90.9117 -235.886 -87.9744 -50.2308 -92.2945 -161.885 33.8663 104.896 -56.4877 -5.9095 -4.61282 70.3572 6.57904 1.4679 29.6945 1.29493 -3.83002 170.985 29.5908 76.8278 -55.9381 -25.1484 -2.90057 77.9353 -12.1454 -1.10639 34.0777 -2.19434 5.05061 -0.216517 8.53918 -91.1111 9.7821 -0.934727 -2.12994 -1.89016 -1.02754 -2.08676 -24.4118 -0.251567 -2.31229 -4.3992 -0.251561 -2.3123 91.6857 -27.9151 -104.118 33.1159 1.0264 -2.05416 -5.84991 -18.512 -32.8582 -28.8259 1.13845 -14.3372 -92.2932 -53.3208 76.1215 -19.7186 5.62749 -5.47867 9.80402 24.3974 -21.303 16.9813 0.00422015 -3.81352 11.7426 17.1836 6.76473 -9.50586 14.6515 8.85928 
-243.465 88.5883 -234.7 -83.8 -51.655 -91.2829 -165.749 36.8842 108.743 -51.0023 -6.93339 -2.82369 66.1439 4.32299 1.61995 28.2513 0.683773 -4.23092 172.207 35.9829 72.4759 -61.6253 -24.8737 -3.97156 79.4866 -12.9503 -0.715345 36.5619 -2.85476 3.85515 -0.692636 8.42319 -90.8661 10.013 -1.77417 -1.57265 -1.65755 -1.84166 -1.49304 -24.1903 -1.2196 -2.03305 -4.1777 -1.21961 -2.03306 90.1194 -30.7009 -106.259 28.0894 2.48374 -0.173394 -5.86465 -15.8671 -33.6612 -24.5645 1.46623 -16.9251 -89.8349 -51.8883 79.3678 -18.9113 0.363432 -3.04599 13.1396 22.3638 -24.4272 16.723 -0.363945 -5.99535 16.0074 19.226 6.6271 -11.0867 16.2759 8.66733 
-240.897 86.8535 -232.419 -80.6222 -50.9172 -89.8854 -169.16 37.5654 114.551 -44.212 -4.68688 -0.819775 62.6727 2.68879 2.72714 28.053 0.324864 -3.07276 174.899 39.5969 68.9003 -64.3148 -24.7642 -5.61281 79.9279 -13.2572 -0.540105 39.2025 -3.6215 2.7254 -0.619036 8.32335 -90.7465 10.2164 -1.57423 -1.34844 -1.45418 -1.63204 -1.27785 -23.988 -1.09626 -1.75916 -3.97534 -1.09626 -1.75915 90.4782 -29.0065 -106.188 26.1346 3.48945 5.09561 -6.12728 -14.2022 -35.1129 -19.5562 1.61758 -20.7354 -87.7558 -49.9337 82.0843 -16.2301 -6.85919 3.51024 20.5323 19.0093 -37.3352 9.29453 -0.669469 -9.87207 19.3853 20.2256 8.5264 -11.5288 16.4633 7.80518 
-237.982 85.8798 -229.482 -78.6382 -52.1103 -88.8665 -173.058 38.2273 120.082 -38.9303 2.89931 1.62707 60.1997 1.53491 3.8617 23.6126 -1.73576 -3.67655 176.994 39.7189 65.5786 -63.8749 -22.75 -7.26517 79.7308 -13.0335 -0.0512528 41.3669 -4.27593 0.682784 -0.323866 8.13072 -90.7203 10.604 -0.976181 -1.34255 -1.06723 -1.03431 -1.2983 -23.5977 -0.527622 -1.57381 -3.58504 -0.527622 -1.57382 92.193 -24.5205 -104.267 25.5125 1.42266 15.6617 -7.315 -13.1646 -39.5751 -12.2236 1.14986 -26.6897 -86.5602 -46.2565 83.2707 -9.90217 -6.529 9.63605 22.6546 11.5597 -52.0549 9.84404 -0.816784 -10.9445 19.6964 19.1393 10.9775 -11.2675 14.7169 6.94779 
